<svg width={20} height={20} viewBox="0 0 20 20" fill="none" xmlns="http://www.w3.org/2000/svg">
  <path d="M9.99972 11.486C10.232 11.486 10.458 11.4609 10.6652 11.3918C10.5647 11.0089 10.5271 10.5882 10.5585 10.199C10.4015 10.2995 10.2132 10.3497 9.99972 10.3497C9.25893 10.3497 8.78809 9.78467 8.78809 8.94343V4.98835C8.78809 4.15339 9.25893 3.5821 9.99972 3.5821C10.7405 3.5821 11.2114 4.15339 11.2114 4.98835V8.29053C11.4939 7.77574 11.9019 7.33001 12.3979 7.01611V5.01346C12.3979 3.50049 11.406 2.4458 9.99972 2.4458C8.58719 2.4458 7.59528 3.50049 7.59528 5.01346V8.9246C7.59528 10.4313 8.58719 11.486 9.99972 11.486ZM14.6705 13.6644C16.422 13.6644 17.8973 12.1954 17.8973 10.4313C17.8973 8.66092 16.4408 7.20445 14.6705 7.20445C12.9001 7.20445 11.4374 8.66092 11.4374 10.4313C11.4374 12.2079 12.9001 13.6644 14.6705 13.6644ZM7.11816 16.2509H12.875C13.2015 16.2509 13.4714 15.9872 13.4714 15.6671C13.4714 15.3406 13.2015 15.0769 12.875 15.0769H10.571V13.79C11.0732 13.746 11.5315 13.633 11.9584 13.4635C11.6383 13.2187 11.362 12.9111 11.1486 12.5469C10.7907 12.6537 10.4141 12.7039 9.99972 12.7039C7.85896 12.7039 6.41504 11.2914 6.41504 9.15688V7.9578C6.41504 7.63135 6.14509 7.37395 5.81864 7.37395C5.49219 7.37395 5.22852 7.63135 5.22852 7.9578V9.20082C5.22852 11.781 6.94866 13.5514 9.42215 13.79V15.0769H7.11816C6.79171 15.0769 6.52176 15.3406 6.52176 15.6671C6.52176 15.9872 6.79171 16.2509 7.11816 16.2509ZM14.6705 12.4842C14.4068 12.4842 14.2373 12.3084 14.2373 12.0573V10.8645H13.0508C12.7934 10.8645 12.6239 10.695 12.6239 10.4313C12.6176 10.1739 12.7934 10.0044 13.0508 10.0044H14.2373V8.81787C14.2373 8.56676 14.4068 8.39097 14.6705 8.39097C14.9279 8.39097 15.0974 8.56048 15.0974 8.81787V10.0044H16.2839C16.5413 10.0044 16.7108 10.1739 16.7108 10.4313C16.7108 10.695 16.5413 10.8645 16.2839 10.8645H15.0974V12.0573C15.0974 12.3084 14.9279 12.4842 14.6705 12.4842Z" fill="#32324D" />
</svg>

