<svg width={162} height={134} viewBox="0 0 162 134" fill="none" xmlns="http://www.w3.org/2000/svg">
  <rect x="0.5" y="0.5" width={161} height={133} rx="8.5" fill="white" />
  <g opacity="0.8">
    <path fillRule="evenodd" clipRule="evenodd" d="M87.5185 51.5334C89.8095 51.5334 91.6667 53.0482 91.6667 54.9168C91.6667 56.7853 89.8095 58.3001 87.5185 58.3001H125.444C127.735 58.3001 129.593 59.8149 129.593 61.6834C129.593 63.552 127.735 65.0668 125.444 65.0668H138.481C140.772 65.0668 142.63 66.5815 142.63 68.4501C142.63 70.3187 140.772 71.8334 138.481 71.8334H127.222C124.931 71.8334 123.074 73.3482 123.074 75.2168C123.074 77.0853 124.931 78.6001 127.222 78.6001H130.778C133.069 78.6001 134.926 80.1149 134.926 81.9834C134.926 83.852 133.069 85.3668 130.778 85.3668H99.963C99.6579 85.3668 99.3604 85.3399 99.0741 85.2889C98.7877 85.3399 98.4903 85.3668 98.1852 85.3668H44.2593C41.9683 85.3668 40.1111 83.852 40.1111 81.9834C40.1111 80.1149 41.9683 78.6001 44.2593 78.6001H21.1481C18.8572 78.6001 17 77.0853 17 75.2168C17 73.3482 18.8572 71.8334 21.1481 71.8334H44.8519C47.1428 71.8334 49 70.3187 49 68.4501C49 66.5815 47.1428 65.0668 44.8519 65.0668H30.037C27.7461 65.0668 25.8889 63.552 25.8889 61.6834C25.8889 59.8149 27.7461 58.3001 30.037 58.3001H53.7407C51.4498 58.3001 49.5926 56.7853 49.5926 54.9168C49.5926 53.0482 51.4498 51.5334 53.7407 51.5334H87.5185ZM140.852 78.6001C143.143 78.6001 145 80.1149 145 81.9834C145 83.852 143.143 85.3668 140.852 85.3668C138.561 85.3668 136.704 83.852 136.704 81.9834C136.704 80.1149 138.561 78.6001 140.852 78.6001Z" fill="#0086FF" fillOpacity="0.2" />
    <path fillRule="evenodd" clipRule="evenodd" d="M58.054 87.8428L55.6421 88.1193C54.3457 88.2679 53.1471 87.5312 52.9649 86.4738L46.3671 48.1835C46.1849 47.1261 47.0881 46.1485 48.3845 45.9999L94.7437 40.6858C96.0401 40.5372 97.2387 41.2739 97.4209 42.3312C97.7021 43.9634 97.8911 45.0602 97.9879 45.6217" fill="white" />
    <path fillRule="evenodd" clipRule="evenodd" d="M59.5513 85.7111L57.3612 85.965C56.184 86.1014 55.0971 85.4338 54.9335 84.4739L49.0105 49.7102C48.8469 48.7502 49.6686 47.8614 50.8458 47.7249L92.9421 42.8448C94.1193 42.7084 95.2061 43.376 95.3697 44.3359L95.8787 47.3233C95.9062 47.4849 97.7246 58.2147 101.334 79.5125C101.515 80.5819 100.611 81.5701 99.3145 81.7196C99.3006 81.7212 99.2866 81.7227 99.2727 81.7241L59.5513 85.7111Z" fill="#0086FF" fillOpacity="0.1" />
    <path d="M58.054 87.8428L55.6421 88.1193C54.3457 88.2679 53.1471 87.5312 52.9649 86.4738L46.3671 48.1835C46.1849 47.1261 47.0881 46.1485 48.3845 45.9999L94.7437 40.6858C96.0401 40.5372 97.2387 41.2739 97.4209 42.3312C97.7021 43.9634 97.8911 45.0602 97.9879 45.6217" stroke="#0086FF" strokeOpacity="0.83" strokeOpacity="2.5" strokeOpacity="round" />
    <path d="M98.4814 47.8501L98.7777 49.3583" stroke="#0086FF" strokeOpacity="0.83" strokeOpacity="2.5" strokeOpacity="round" />
    <path fillRule="evenodd" clipRule="evenodd" d="M114.429 52.6443L67.8702 48.6531C67.4227 48.6147 66.9984 48.728 66.6743 48.942C66.3502 49.1561 66.1262 49.471 66.0792 49.836L61.1237 88.2909C61.0767 88.6559 61.2155 89.0019 61.478 89.2663C61.7405 89.5307 62.1266 89.7134 62.5741 89.7517L109.132 93.743C109.58 93.7813 110.004 93.6681 110.328 93.454C110.652 93.24 110.876 92.925 110.924 92.56L115.879 54.1052C115.926 53.7401 115.787 53.3941 115.525 53.1298C115.262 52.8654 114.876 52.6827 114.429 52.6443Z" fill="white" stroke="#0086FF" strokeOpacity="0.83" strokeOpacity="2.5" />
    <path fillRule="evenodd" clipRule="evenodd" d="M72.105 52.7827L109.234 55.9656C110.21 56.0493 110.919 56.7628 110.816 57.5592L107.533 83.0355C107.43 83.832 106.556 84.4097 105.579 84.326L68.4503 81.1431C67.4739 81.0594 66.7655 80.3459 66.8681 79.5495L70.1511 54.0732C70.2537 53.2767 71.1285 52.699 72.105 52.7827Z" fill="white" />
    <path fillRule="evenodd" clipRule="evenodd" d="M71.9575 73.7076L77.7634 70.5138C78.7315 69.9812 80.0308 70.103 80.8255 70.8008L85.0766 74.5336C85.2888 74.7199 85.6416 74.7403 85.8838 74.5802L94.9741 68.5726C95.9912 67.9004 97.4839 68.0279 98.3081 68.8575C98.3613 68.9111 98.411 68.967 98.457 69.025L104.372 76.4864L105.221 77.6425L104.814 81.5694C104.787 81.8354 104.5 82.0328 104.174 82.0103C104.169 82.01 104.163 82.0096 104.158 82.0091L70.4026 78.9502C70.0816 78.9211 69.8483 78.6878 69.8779 78.4255L70.3253 74.4628L71.9575 73.7076Z" fill="#0086FF" fillOpacity="0.1" />
    <path fillRule="evenodd" clipRule="evenodd" d="M109.157 56.5662L72.0279 53.3833C71.7431 53.3589 71.4732 53.431 71.2669 53.5672C71.0607 53.7034 70.9181 53.9038 70.8882 54.1361L67.6052 79.6125C67.5753 79.8448 67.6636 80.0649 67.8306 80.2332C67.9977 80.4014 68.2434 80.5177 68.5282 80.5421L105.657 83.725C105.942 83.7494 106.212 83.6773 106.418 83.5411C106.624 83.4049 106.767 83.2045 106.797 82.9722L110.08 57.4958C110.11 57.2636 110.021 57.0434 109.854 56.8751C109.687 56.7069 109.442 56.5906 109.157 56.5662Z" stroke="#0086FF" strokeOpacity="0.83" strokeOpacity="2.5" />
    <path d="M78.8694 65.0264C80.8224 65.1938 82.5719 64.0383 82.7772 62.4455C82.9824 60.8526 81.5657 59.4256 79.6127 59.2582C77.6598 59.0908 75.9103 60.2463 75.705 61.8392C75.4997 63.432 76.9165 64.859 78.8694 65.0264Z" fill="#0086FF" fillOpacity="0.1" stroke="#0086FF" strokeOpacity="0.83" strokeOpacity="2.5" />
    <path d="M70.7651 74.4553C72.3202 73.5794 74.6529 72.2655 77.7631 70.5137C78.7312 69.9811 80.0306 70.1029 80.8253 70.8007L85.0763 74.5335C85.2885 74.7198 85.6414 74.7402 85.8836 74.5801L94.9739 68.5724C95.991 67.9002 97.4837 68.0278 98.3078 68.8574C98.3611 68.911 98.4108 68.9669 98.4567 69.0249C102 73.6103 104.185 76.4388 105.013 77.5103" stroke="#0086FF" strokeOpacity="0.83" strokeOpacity="2.5" strokeOpacity="round" />
  </g>
  <rect x="0.5" y="0.5" width={161} height={133} rx="8.5" stroke="#EAEAEF" strokeOpacity="round" strokeOpacity="5 5" />
</svg>

