<svg width={20} height={20} viewBox="0 0 20 20" fill="none" xmlns="http://www.w3.org/2000/svg">
  <path d="M14.9 8.6C14.7143 8.6 14.5363 8.67375 14.405 8.80503C14.2737 8.9363 14.2 9.11435 14.2 9.3V11.666L13.164 10.63C12.7982 10.2671 12.3038 10.0634 11.7885 10.0634C11.2732 10.0634 10.7788 10.2671 10.413 10.63L9.923 11.127L8.187 9.384C7.8212 9.02108 7.32679 8.81744 6.8115 8.81744C6.29621 8.81744 5.8018 9.02108 5.436 9.384L4.4 10.427V6.5C4.4 6.31435 4.47375 6.1363 4.60503 6.00503C4.7363 5.87375 4.91435 5.8 5.1 5.8H10.7C10.8857 5.8 11.0637 5.72625 11.195 5.59497C11.3263 5.4637 11.4 5.28565 11.4 5.1C11.4 4.91435 11.3263 4.7363 11.195 4.60503C11.0637 4.47375 10.8857 4.4 10.7 4.4H5.1C4.54305 4.4 4.0089 4.62125 3.61508 5.01508C3.22125 5.4089 3 5.94305 3 6.5V15.054C3.00184 15.5695 3.20746 16.0634 3.57201 16.428C3.93655 16.7925 4.43046 16.9982 4.946 17H13.654C13.8437 16.9985 14.0322 16.9702 14.214 16.916C14.6182 16.8026 14.9741 16.5598 15.2269 16.2247C15.4798 15.8896 15.6158 15.4808 15.614 15.061V9.3C15.614 9.20688 15.5955 9.1147 15.5594 9.02885C15.5234 8.94299 15.4705 8.8652 15.404 8.80001C15.3376 8.73482 15.2587 8.68355 15.1722 8.64921C15.0856 8.61487 14.9931 8.59814 14.9 8.6ZM5.1 15.6C4.91435 15.6 4.7363 15.5263 4.60503 15.395C4.47375 15.2637 4.4 15.0857 4.4 14.9V12.401L6.423 10.378C6.52531 10.2763 6.66372 10.2192 6.808 10.2192C6.95228 10.2192 7.09069 10.2763 7.193 10.378L12.422 15.6H5.1ZM14.2 14.9C14.1955 15.0355 14.1517 15.1669 14.074 15.278L10.91 12.1L11.407 11.61C11.4572 11.5588 11.5171 11.5181 11.5832 11.4903C11.6493 11.4625 11.7203 11.4482 11.792 11.4482C11.8637 11.4482 11.9347 11.4625 12.0008 11.4903C12.0669 11.5181 12.1268 11.5588 12.177 11.61L14.2 13.647V14.9ZM16.3 4.4H15.6V3.7C15.6 3.51435 15.5263 3.3363 15.395 3.20503C15.2637 3.07375 15.0857 3 14.9 3C14.7143 3 14.5363 3.07375 14.405 3.20503C14.2737 3.3363 14.2 3.51435 14.2 3.7V4.4H13.5C13.3143 4.4 13.1363 4.47375 13.005 4.60503C12.8737 4.7363 12.8 4.91435 12.8 5.1C12.8 5.28565 12.8737 5.4637 13.005 5.59497C13.1363 5.72625 13.3143 5.8 13.5 5.8H14.2V6.5C14.2 6.68565 14.2737 6.8637 14.405 6.99497C14.5363 7.12625 14.7143 7.2 14.9 7.2C15.0857 7.2 15.2637 7.12625 15.395 6.99497C15.5263 6.8637 15.6 6.68565 15.6 6.5V5.8H16.3C16.4857 5.8 16.6637 5.72625 16.795 5.59497C16.9263 5.4637 17 5.28565 17 5.1C17 4.91435 16.9263 4.7363 16.795 4.60503C16.6637 4.47375 16.4857 4.4 16.3 4.4Z" fill="#32324D" />
</svg>

