<svg width={20} height={20} viewBox="0 0 20 20" fill="none" xmlns="http://www.w3.org/2000/svg">
  <path d="M12.097 16.4265H15.7319C16.0834 16.4265 16.2655 16.2633 16.2655 15.9808C16.2655 15.692 16.0834 15.5351 15.7319 15.5351H14.4323V3.93352H15.7319C16.0834 3.93352 16.2655 3.77658 16.2655 3.48152C16.2655 3.19901 16.0834 3.04834 15.7319 3.04834H12.097C11.7454 3.04834 11.5633 3.19901 11.5633 3.48152C11.5633 3.77658 11.7454 3.93352 12.097 3.93352H13.409V15.5351H12.097C11.7454 15.5351 11.5633 15.692 11.5633 15.9808C11.5633 16.2633 11.7454 16.4265 12.097 16.4265ZM7.50153 14.4553C7.95354 14.4553 8.24861 14.1728 8.24861 13.7208V6.48235H10.6217C11.0046 6.48235 11.2808 6.23124 11.2808 5.84201C11.2808 5.45905 11.0046 5.20794 10.6217 5.20794H4.3877C4.00474 5.20794 3.72852 5.45905 3.72852 5.84201C3.72852 6.23124 4.00474 6.48235 4.3877 6.48235H6.76074V13.7208C6.76074 14.1728 7.04953 14.4553 7.50153 14.4553Z" fill="#32324D" />
</svg>

