<svg width={20} height={20} viewBox="0 0 20 20" fill="none" xmlns="http://www.w3.org/2000/svg">
  <g clipPath="url(#clip0_452_33707)">
    <path d="M7.01172 15.02H11.6448C13.2582 15.02 14.1936 14.1034 14.1936 12.5277V11.7743L16.4474 13.6828C16.7425 13.9277 17.0501 14.0972 17.3514 14.0972C17.9227 14.0972 18.3182 13.6828 18.3182 13.0676V6.50718C18.3182 5.88567 17.9227 5.47133 17.3514 5.47133C17.0501 5.47133 16.7425 5.64083 16.4474 5.88567L14.1936 7.79415V7.00942C14.1936 5.43366 13.2582 4.51709 11.6448 4.51709H5.11579C3.55887 4.51709 2.57324 5.43366 2.57324 7.01569V9.45152C2.76786 9.42641 2.96875 9.40758 3.16964 9.40758C3.37681 9.40758 3.58398 9.42641 3.78488 9.4578V7.19148C3.78488 6.15562 4.34361 5.64711 5.32296 5.64711H11.4376C12.417 5.64711 12.9757 6.17446 12.9757 7.19148V12.3394C12.9757 13.3627 12.4107 13.89 11.4376 13.89H7.26283C7.23772 14.2855 7.16239 14.6622 7.01172 15.02ZM16.9182 12.647L14.1936 10.4183V9.15018L16.9182 6.92153C16.9747 6.87758 17.0124 6.84619 17.0626 6.84619C17.1317 6.84619 17.1694 6.90269 17.1694 6.98431V12.5842C17.1694 12.6658 17.1317 12.7223 17.0626 12.7223C17.0124 12.7223 16.9747 12.6909 16.9182 12.647ZM3.17592 16.7716C4.92746 16.7716 6.40904 15.3025 6.40904 13.5322C6.40904 11.7618 4.94629 10.299 3.17592 10.299C1.39927 10.299 -0.0634766 11.7618 -0.0634766 13.5322C-0.0634766 15.3088 1.39927 16.7716 3.17592 16.7716ZM1.12305 13.5384C1.12305 13.2748 1.29255 13.1053 1.55622 13.1053H2.74275V11.9187C2.74275 11.6613 2.91225 11.4856 3.17592 11.4856C3.43331 11.4856 3.60282 11.6613 3.60282 11.9187V13.1053H4.79562C5.05301 13.1053 5.22252 13.2748 5.22252 13.5384C5.22252 13.7958 5.05301 13.9653 4.79562 13.9653H3.60282V15.1581C3.60282 15.4155 3.43331 15.5913 3.17592 15.5913C2.91225 15.5913 2.74275 15.4155 2.74275 15.1581V13.9653H1.55622C1.29883 13.9653 1.12305 13.7958 1.12305 13.5384Z" fill="#32324D" />
  </g>
  <defs>
    <clipPath id="clip0_452_33707">
      <rect width={20} height={20} fill="white" />
    </clipPath>
  </defs>
</svg>

